<svg width="20" height="20" viewBox="0 0 20 20" fill="none" xmlns="http://www.w3.org/2000/svg">
<path opacity="0.5" d="M3.99999 4.84993H3.84999V4.99993V6.00004V6.15004H3.99999H6.99998H7.14998V6.00004V4.99993V4.84993H6.99998H3.99999ZM4.00008 9.84997H3.85008V9.99997V10.9999V11.1499H4.00008H7.00007H7.15007V10.9999V9.99997V9.84997H7.00007H4.00008ZM4.00008 14.8501H3.85008V15.0001V16V16.15H4.00008H15.8985H16.0485V16V15.0001V14.8501H15.8985H4.00008ZM2.53128 0.85C1.60921 0.85 0.85 1.60921 0.85 2.53128V17.4708C0.85 18.3931 1.60946 19.1501 2.53128 19.1501H17.4687C18.3905 19.1501 19.1499 18.3931 19.1499 17.4708V2.53128C19.1499 1.60921 18.3907 0.85 17.4687 0.85H2.53128ZM2.53128 2.15195H17.4687C17.6891 2.15195 17.85 2.31238 17.85 2.53132V17.4708C17.85 17.6898 17.689 17.8502 17.4687 17.8502H2.53128C2.31087 17.8502 2.14994 17.6898 2.14994 17.4708V2.53132C2.14994 2.31239 2.31089 2.15195 2.53128 2.15195ZM9.49983 3.84999C9.14089 3.84999 8.84994 4.14101 8.84994 4.50004V7.50003C8.84994 7.85894 9.14093 8.14992 9.49983 8.14992H15.4998C15.8588 8.14992 16.1499 7.85896 16.1499 7.50003V4.50004C16.1499 4.14098 15.8589 3.84999 15.4998 3.84999H9.49983ZM10.15 5.14993H14.8501V6.84998H10.15V5.14993ZM9.49991 8.85003C9.14101 8.85003 8.85003 9.14102 8.85003 9.49991V12.4999C8.85003 12.8589 9.14098 13.15 9.49991 13.15H15.4999C15.859 13.15 16.1499 12.859 16.1499 12.4999V9.49991C16.1499 9.14098 15.8589 8.85003 15.4999 8.85003H9.49991ZM10.1501 10.15H14.8502V11.85H10.1501V10.15Z" fill="white" stroke="white" stroke-width="0.3"/>
</svg>
